<?xml version="1.0" encoding="utf-8"?>
<!-- Generator: Adobe Illustrator 16.0.0, SVG Export Plug-In . SVG Version: 6.00 Build 0)  -->
<!DOCTYPE svg PUBLIC "-//W3C//DTD SVG 1.1//EN" "http://www.w3.org/Graphics/SVG/1.1/DTD/svg11.dtd">
<svg version="1.1" id="Layer_1" xmlns="http://www.w3.org/2000/svg" xmlns:xlink="http://www.w3.org/1999/xlink" x="0px" y="0px"
	 width="612px" height="792px" viewBox="0 0 612 792" enable-background="new 0 0 612 792" xml:space="preserve">
<g>
	<g>
		<path fill="#FFFFFF" d="M309.727,436.328l-0.506,2.999l-0.261,1.497l-0.44,1.502l-0.914,3.054l-1.189,2.901
			c-0.736,1.988-1.809,3.778-2.779,5.664c-0.479,0.949-1.095,1.792-1.642,2.697c-0.573,0.884-1.111,1.809-1.724,2.665
			c-4.896,6.895-10.93,13.001-17.783,18.196c-6.862,5.189-14.631,9.408-23.489,11.984c-1.084,0.368-2.241,0.599-3.398,0.835
			l-1.737,0.355l-0.873,0.169l-0.218,0.041c-0.105,0.014,0.081,0.004-0.263,0.032l-0.093,0.013l-0.374,0.052l-1.496,0.204
			c-0.504,0.065-0.965,0.142-1.586,0.188c-1.155,0.095-2.375,0.231-3.488,0.276c-4.492,0.254-9.072,0.153-13.663-0.479
			c-4.586-0.639-9.192-1.741-13.692-3.437c-4.498-1.701-8.872-4.027-12.897-7.002c-4.037-2.956-7.667-6.624-10.708-10.757
			c-3.071-4.123-5.347-8.817-6.967-13.629c-1.614-4.822-2.516-9.798-2.836-14.694c-0.165-2.449-0.147-4.882-0.036-7.285l0.017-0.452
			l0.009-0.227l0.043-0.508l0.062-0.751l0.124-1.503l0.248-3.004c0.027-0.469,0.115-1.071,0.191-1.646l0.233-1.729l0.481-3.461
			c0.374-2.23,0.81-4.369,1.22-6.56c0.48-2.157,1.035-4.295,1.57-6.439l1.896-6.318c2.724-8.343,6.095-16.369,10.021-23.964
			c3.907-7.606,8.162-14.896,12.664-21.883c4.493-6.997,9.252-13.677,14.035-20.208c4.787-6.528,9.655-12.869,14.417-19.179
			c4.764-6.309,9.454-12.566,13.924-18.906c2.249-3.164,4.445-6.346,6.523-9.591c2.108-3.23,4.158-6.488,6.07-9.826
			c1.005-1.65,1.891-3.343,2.851-5.024c0.941-1.686,1.741-3.423,2.674-5.128l0.17-0.322l0.085-0.161
			c0.085-0.248-0.067,0.249-0.038,0.165l0.039-0.087l0.309-0.694l0.617-1.389l0.617-1.389l0.308-0.695
			c0.099-0.227,0.151-0.406,0.229-0.612c0.571-1.602,1.304-3.183,1.751-5.022c2.21-7.112,2.619-15.127,3.187-23.327l-0.001-0.005
			l0.971,0.08c-0.1,1.158-0.121,2.243,0.289,3.227c0.122,0.492,0.448,0.972,0.669,1.44c0.318,0.487,0.587,0.939,0.945,1.444
			c0.675,0.959,1.389,2.063,2.015,3.252l1.707,3.213c2.271,4.283,4.42,8.672,6.716,12.873c2.275,4.232,4.417,8.488,6.787,12.67
			l3.415,6.312c1.143,2.099,2.355,4.16,3.516,6.244l7.08,12.545c2.4,4.2,4.703,8.431,7.052,12.637
			c4.647,8.439,9.28,16.746,14.001,24.94l7.232,12.097l3.808,5.847l1.891,2.929l0.942,1.464l1.006,1.405l4.036,5.6l2.013,2.799
			c0.695,0.907,1.438,1.768,2.154,2.653l4.321,5.278l1.077,1.32l0.135,0.165l0.067,0.083c0.151,0.179-0.136-0.15-0.076-0.087
			l0.303,0.336l0.606,0.67l2.427,2.685l4.851,5.342l4.811,4.937c3.106,3.289,6.66,6.601,9.971,9.938
			c3.386,3.338,6.852,6.651,10.294,9.991l5.225,5.027c1.741,1.666,3.485,3.355,5.214,5.095l5.194,5.168
			c1.731,1.726,3.438,3.531,5.158,5.295c1.708,1.791,3.454,3.507,5.13,5.358l5.016,5.55l1.249,1.393l0.623,0.695l0.313,0.349
			l0.38,0.447l0.144,0.176l2.278,2.808c1.455,1.688,3.212,4.228,4.829,6.467c0.862,1.155,1.536,2.284,2.255,3.421l2.134,3.409
			c0.668,1.159,1.294,2.344,1.929,3.521c0.616,1.186,1.306,2.338,1.841,3.559c4.656,9.606,8.014,19.697,10.153,29.864
			c2.085,10.179,3.136,20.385,3.475,30.473c0.119,2.528,0.078,5.034,0.122,7.55c0.012,1.256-0.028,2.503-0.041,3.755l-0.067,3.842
			l-0.14,3.615l-0.234,3.932c-0.201,2.604-0.439,5.174-0.803,7.799c-0.729,5.226-1.866,10.553-3.753,15.766
			c-0.241,0.649-0.455,1.303-0.722,1.946l-0.831,1.925c-0.283,0.639-0.545,1.281-0.851,1.911l-0.969,1.874
			c-0.336,0.617-0.655,1.24-1.007,1.85l-1.127,1.789l-1.138,1.774l-1.26,1.695c-3.388,4.489-7.463,8.365-11.878,11.488l-1.675,1.132
			l-1.9,1.26l-1.605,0.854c-0.223,0.127-0.671,0.333-1.003,0.495l-1.077,0.505c-0.353,0.156-0.732,0.35-1.061,0.47l-0.986,0.366
			c-0.657,0.231-1.312,0.503-1.974,0.675c-1.319,0.387-2.631,0.755-3.95,1.017c-5.253,1.145-10.586,1.346-15.813,0.665l-1.955-0.345
			l-0.967-0.186l-0.964-0.265c-0.64-0.184-1.272-0.334-1.899-0.548l-1.854-0.714c-2.424-1.056-4.699-2.515-6.402-4.427l0.605-0.797
			c4.414,1.866,9.016,1.649,13.419,0.954c2.212-0.447,4.382-0.921,6.491-1.669c1.06-0.313,2.094-0.747,3.119-1.126
			c1.007-0.458,2.025-0.848,2.987-1.346c0.986-0.452,1.912-0.98,2.826-1.506c0.471-0.245,0.874-0.563,1.316-0.825l0.646-0.409
			c0.218-0.136,0.349-0.268,0.526-0.396l0.498-0.381c0.186-0.146,0.288-0.195,0.553-0.426l1.394-1.169l0.087-0.071
			c-0.435,0.3-0.079,0.041-0.157,0.089l0.143-0.146l0.285-0.289l0.576-0.567l1.146-1.129c2.948-3.099,5.45-6.397,7.396-9.945
			c3.899-7.073,5.75-15.106,6.396-23.837c0.179-2.168,0.259-4.409,0.308-6.623l0.015-3.297l-0.063-3.617l-0.136-3.392
			c-0.054-1.159-0.079-2.324-0.155-3.479c-0.174-2.302-0.26-4.621-0.499-6.903c-0.8-9.159-2.139-18.161-4.348-26.794
			c-2.265-8.604-5.269-16.862-9.315-24.478c-0.994-1.912-2.152-3.724-3.2-5.595l-1.761-2.688c-0.585-0.893-1.16-1.828-1.77-2.587
			c-1.256-1.632-2.188-3.105-3.913-5.053l-2.331-2.767l-2.146-2.306c-1.59-1.703-3.178-3.406-4.743-5.131
			c-1.558-1.726-3.257-3.388-4.879-5.086c-1.649-1.687-3.255-3.386-4.941-5.063l-5.066-5.027l-10.209-10.146
			c-3.428-3.43-6.879-6.838-10.309-10.324l-5.117-5.299c-0.853-0.896-1.698-1.748-2.554-2.68l-2.56-2.797l-5.109-5.595l-4.71-5.515
			l-2.344-2.755l-0.586-0.689l-0.293-0.344c0.006,0.007-0.324-0.383-0.219-0.263l-0.071-0.095l-0.146-0.191l-1.151-1.527
			l-4.597-6.111c-0.757-1.022-1.545-2.028-2.272-3.065l-2.087-3.16l-4.163-6.318l-1.032-1.583l-0.952-1.616l-1.901-3.231
			l-3.775-6.474l-3.47-6.576c-1.133-2.198-2.358-4.366-3.396-6.593l-3.175-6.654c-1.056-2.219-2.138-4.424-3.093-6.665
			c-1.95-4.467-3.993-8.922-5.829-13.385c-1.855-4.474-3.757-8.922-5.553-13.407l-2.717-6.712l-2.643-6.865
			c-0.863-2.293-1.792-4.556-2.575-6.878l-2.381-6.944c-1.592-4.614-2.992-9.331-4.367-14.026c-1.441-4.692-2.549-9.385-3.747-14.1
			l-0.87-3.546c-0.252-1.058-0.599-2.122-1.007-3.316c-0.2-0.564-0.386-1.23-0.571-1.839c-0.125-0.684-0.324-1.313-0.319-2.03
			c-0.003-0.349-0.06-0.687-0.009-1.031c0.047-0.344,0.098-0.684,0.157-1.016c0.121-0.662,0.439-1.261,0.649-1.86l0.998-2.848
			l-0.027,2.929v0.005c0.714,1.931,1.47,3.854,2.062,5.839l0.912,2.982l0.758,3.051c0.947,4.095,1.607,8.396,1.582,12.802
			c0.089,2.172-0.131,4.502-0.364,6.837c-0.032,0.284-0.057,0.603-0.096,0.859l-0.12,0.75l-0.24,1.501l-0.239,1.5l-0.12,0.75
			l-0.015,0.094c0.013-0.023-0.161,0.533-0.098,0.344l-0.044,0.193l-0.088,0.386c-0.911,4.137-2.042,8.228-3.316,12.271
			c-1.343,4.01-2.78,7.997-4.41,11.881c-1.645,3.877-3.373,7.713-5.231,11.456c-3.715,7.494-7.827,14.696-12.1,21.679
			c-4.276,6.982-8.686,13.768-13.088,20.427c-4.406,6.657-8.75,13.227-12.931,19.765c-4.168,6.544-8.154,13.076-11.634,19.747
			c-3.459,6.677-6.614,13.389-9.064,20.271l-1.725,5.179l-1.481,5.223c-0.407,1.743-0.868,3.524-1.247,5.239l-0.475,2.49
			l-0.245,1.246c-0.082,0.418-0.171,0.804-0.23,1.337l-0.396,2.988l-0.198,1.494l-0.099,0.747l-0.012,0.094
			c-0.031,0.311,0.027-0.315,0.02-0.227l-0.012,0.15l-0.024,0.3c-0.165,1.605-0.226,3.193-0.251,4.761
			c-0.02,3.131,0.324,6.161,1.052,9.026c1.451,5.726,4.453,10.813,8.984,14.892c2.28,2.011,4.896,3.778,7.77,5.277
			c2.889,1.471,6.048,2.619,9.358,3.455c3.31,0.838,6.772,1.415,10.315,1.65c0.896,0.081,1.684,0.081,2.537,0.133
			c0.383,0.032,0.923,0.018,1.421,0.014l1.51-0.016l0.377-0.004l0.095-0.001c-0.281,0.026-0.034,0.004-0.077,0.008l0.155-0.012
			l0.619-0.046l1.246-0.072c0.833-0.042,1.671-0.063,2.528-0.233l2.574-0.39c0.862-0.151,1.724-0.401,2.592-0.597
			c1.748-0.346,3.458-0.984,5.206-1.512c0.884-0.236,1.725-0.624,2.591-0.941c0.86-0.338,1.731-0.655,2.591-1.009l2.541-1.176
			c0.85-0.394,1.712-0.771,2.526-1.239c6.686-3.454,13.051-7.825,18.696-13.071c0.715-0.646,1.36-1.354,2.049-2.031
			c0.661-0.698,1.406-1.35,2.007-2.097l1.879-2.214c0.667-0.721,1.222-1.509,1.787-2.299l1.713-2.381l1.486-2.477l0.76-1.262
			l0.642-1.378l1.291-2.755L309.727,436.328z"/>
	</g>
	<g>
		<path fill="#FFFFFF" d="M260.286,466.917c0,0,0.822-0.483,2.363-1.391c1.562-0.888,3.738-2.31,6.784-3.786
			c1.507-0.753,3.166-1.663,5.017-2.515c1.861-0.826,3.873-1.723,6.023-2.68c2.172-0.909,4.522-1.778,6.997-2.735
			c2.491-0.895,5.137-1.758,7.9-2.697c5.568-1.658,11.667-3.346,18.196-4.724c6.529-1.404,13.471-2.529,20.67-3.521
			c7.204-0.916,14.652-1.604,22.218-2.186c7.561-0.535,15.226-0.339,22.844,0.23c7.582,0.537,15.165,1.074,22.629,1.603
			c7.434,0.508,14.734,0.99,21.787,1.344c7.052,0.342,13.867,0.595,20.322,0.699c6.463,0.146,12.561,0.04,18.199-0.12
			c2.814-0.14,5.514-0.272,8.079-0.399c2.564-0.192,4.999-0.374,7.284-0.545c2.283-0.241,4.419-0.467,6.396-0.675
			c1.979-0.212,3.777-0.515,5.417-0.729c3.281-0.421,5.825-0.938,7.578-1.226c1.751-0.306,2.685-0.468,2.685-0.468l0.262,0.965
			c0,0-0.903,0.297-2.6,0.854c-1.702,0.537-4.176,1.442-7.404,2.298c-1.609,0.438-3.386,0.988-5.343,1.472
			c-1.961,0.479-4.082,0.999-6.349,1.554c-2.285,0.48-4.717,0.993-7.281,1.533c-2.582,0.451-5.296,0.926-8.129,1.422
			c-5.682,0.872-11.863,1.748-18.417,2.414c-6.556,0.741-13.479,1.225-20.635,1.686c-14.313,0.897-29.542,1.345-44.626,2.117
			c-7.538,0.446-15.031,0.637-22.39,0.359c-7.352-0.244-14.58-0.411-21.551-0.313c-6.968,0.075-13.714,0.228-20.069,0.742
			c-3.195,0.161-6.275,0.487-9.273,0.762c-2.996,0.281-5.857,0.733-8.642,1.045c-2.751,0.438-5.41,0.818-7.924,1.259
			c-2.508,0.491-4.887,0.959-7.123,1.397c-2.227,0.518-4.31,1.001-6.237,1.448c-1.914,0.484-3.65,0.979-5.244,1.399
			c-1.589,0.421-3.016,0.811-4.247,1.229c-1.238,0.385-2.291,0.712-3.145,0.978c-1.708,0.53-2.618,0.813-2.618,0.813
			L260.286,466.917z"/>
	</g>
</g>
</svg>
